<svg xmlns="http://www.w3.org/2000/svg" viewBox="0 0 480 18" width="480" height="18" fill="var(--pg-kit-ink, currentColor)" color="#211A17"><path d="M9.8 7.3 17.7 6.5 25.5 6.1 33.4 5.5 41.4 5.6 49.3 6.3 57.2 6.6 65 6.9 72.9 7.2 80.7 7.6 88.7 7.8 88.6 8.8 80.7 8.5 72.8 8.4 65 8.1 57.1 7.7 49.2 7.4 41.4 6.9 33.4 6.8 25.6 7.2 17.7 7.7 9.9 8.2ZM9.9 8 17.7 7.4 25.5 7 33.4 6.6 41.4 6.6 49.3 7.1 57.1 7.5 65 7.9 72.8 8.2 80.7 8.3 88.6 8.7 96.5 9.6 96.4 10.7 88.5 10.3 80.7 10 72.8 9.9 64.9 9.6 57 9.3 49.2 8.9 41.3 8.5 33.5 8.4 25.7 8.9 17.8 9.3 9.9 9.2ZM9.9 9.1 17.8 9.1 25.6 8.6 33.5 8.2 41.3 8.3 49.2 8.7 57 9.1 64.9 9.4 72.8 9.7 80.7 9.8 88.5 10.2 96.4 10.8 96.3 11.6 88.4 11.5 80.6 11.2 72.8 11 64.9 10.7 57 10.4 49.1 10.1 41.3 9.8 33.5 9.7 25.7 10 17.8 10.6 9.9 10ZM142.5 6.9 146.9 6.2 151.3 5.8 155.7 5.7 160.2 5.7 164.6 5.8 169 5.8 173.3 5.6 177.7 5.7 182.1 5.7 186.6 5.5 186.6 6.8 182.2 7 177.8 7.1 173.4 7.1 169 7.2 164.6 7.3 160.2 7.2 155.8 7.3 151.4 7.3 147 7.6 142.6 8.1ZM142.6 8 146.9 7.4 151.4 7.1 155.8 7 160.2 7 164.6 7 169 7 173.4 6.9 177.8 6.8 182.2 6.8 186.6 6.7 191 6.9 191 7.9 186.6 8.1 182.2 8.2 177.8 8.3 173.4 8.4 169 8.5 164.6 8.5 160.2 8.5 155.8 8.6 151.4 8.8 147.1 9 142.7 9.2ZM142.7 9 147 8.8 151.4 8.5 155.8 8.4 160.2 8.3 164.6 8.3 169 8.3 173.4 8.2 177.8 8.1 182.2 8 186.6 7.9 186.6 9.2 182.2 9.3 177.8 9.4 173.4 9.4 169 9.5 164.6 9.7 160.2 9.8 155.8 9.9 151.5 10.1 147.1 10.3 142.8 10.1ZM219.1 7.1 234.3 7 249.5 7.4 264.8 7.5 280 7.7 295.2 7.7 310.4 7.2 325.6 6.5 340.9 6.1 356.2 6.3 371.5 6.5 386.8 7 402 7.9 417.2 8.9 432.4 9.2 447.5 9.1 447.5 9.4 432.4 10.2 417.2 9.8 402 8.9 386.7 8.1 371.5 7.7 356.2 7.4 340.9 7.4 325.7 7.8 310.5 8.5 295.2 8.8 280 8.8 264.8 8.7 249.5 8.4 234.3 8.1 219 7.9ZM219 7.7 234.3 7.9 249.5 8.1 264.8 8.4 280 8.6 295.2 8.6 310.4 8.2 325.7 7.6 340.9 7.2 356.2 7.2 371.5 7.4 386.7 7.9 402 8.6 417.2 9.6 432.4 10.1 447.6 9.7 447.6 10.5 432.4 11.4 417.1 11.1 401.9 10.1 386.7 9.3 371.4 8.9 356.2 8.7 341 8.6 325.7 9 310.5 9.7 295.2 10.2 280 10.2 264.7 10 249.5 9.7 234.2 9.4 219 8.8ZM219 8.7 234.3 9.2 249.5 9.5 264.7 9.8 280 9.9 295.2 9.9 310.5 9.4 325.7 8.8 341 8.4 356.2 8.5 371.4 8.7 386.7 9.1 401.9 9.9 417.1 10.9 432.4 11.3 447.6 10.6 462.8 9.6 462.9 9.8 447.7 11.8 432.4 12.7 417.1 12.4 401.8 11.5 386.6 10.8 371.4 10.5 356.2 10.3 341 10.1 325.8 10.5 310.5 11.1 295.3 11.7 280 11.8 264.7 11.8 249.5 11.3 234.2 10.8 219 9.9Z"/></svg>
